<svg width="10" height="15" viewBox="0 0 10 15" fill="none" xmlns="http://www.w3.org/2000/svg">
<path d="M7.45616 14.2696L1.13741 7.96963C1.06241 7.89463 1.00916 7.81338 0.977664 7.72588C0.946164 7.63838 0.930664 7.54463 0.931164 7.44463C0.931164 7.34463 0.946914 7.25088 0.978414 7.16338C1.00991 7.07588 1.06291 6.99463 1.13741 6.91963L7.45616 0.600879C7.63117 0.425879 7.84992 0.338379 8.11241 0.338379C8.37492 0.338379 8.59991 0.432129 8.78741 0.619629C8.97491 0.807129 9.06866 1.02588 9.06866 1.27588C9.06866 1.52588 8.97491 1.74463 8.78741 1.93213L3.27491 7.44463L8.78741 12.9571C8.96241 13.1321 9.04992 13.3479 9.04992 13.6044C9.04992 13.8609 8.95617 14.0826 8.76866 14.2696C8.58116 14.4571 8.36241 14.5509 8.11241 14.5509C7.86241 14.5509 7.64366 14.4571 7.45616 14.2696Z" fill="black"/>
</svg>
