<svg width="10" height="15" viewBox="0 0 10 15" fill="none" xmlns="http://www.w3.org/2000/svg">
<path d="M2.54384 14.2696L8.86259 7.96963C8.93759 7.89463 8.99084 7.81338 9.02234 7.72588C9.05384 7.63838 9.06934 7.54463 9.06884 7.44463C9.06884 7.34463 9.05309 7.25088 9.02159 7.16338C8.99009 7.07588 8.93709 6.99463 8.86259 6.91963L2.54384 0.600879C2.36883 0.425879 2.15008 0.338379 1.88759 0.338379C1.62508 0.338379 1.40009 0.432129 1.21259 0.619629C1.02509 0.807129 0.931335 1.02588 0.931335 1.27588C0.931335 1.52588 1.02509 1.74463 1.21259 1.93213L6.72509 7.44463L1.21259 12.9571C1.03759 13.1321 0.950085 13.3479 0.950085 13.6044C0.950085 13.8609 1.04383 14.0826 1.23134 14.2696C1.41884 14.4571 1.63759 14.5509 1.88759 14.5509C2.13759 14.5509 2.35634 14.4571 2.54384 14.2696Z" fill="black"/>
</svg>
